<mxfile host="app.diagrams.net" modified="2021-10-15T09:37:08.716Z" agent="5.0 (Windows NT 10.0; Win64; x64) AppleWebKit/537.36 (KHTML, like Gecko) Chrome/90.0.4430.72 Safari/537.36" etag="QXv7_PbF579rw6tjUiLU" version="15.5.2" type="github">
  <diagram id="Y-dNGYrZOKVKFo2g7OBU" name="Page-1">
    <mxGraphModel dx="1955" dy="867" grid="1" gridSize="10" guides="1" tooltips="1" connect="1" arrows="1" fold="1" page="1" pageScale="1" pageWidth="827" pageHeight="1169" math="0" shadow="0">
      <root>
        <mxCell id="0" />
        <mxCell id="1" parent="0" />
        <mxCell id="ZvuicV4Zh5XwK3fBUE3x-1" value="FOREX data (symbols and closing prices)" style="rounded=1;whiteSpace=wrap;html=1;" vertex="1" parent="1">
          <mxGeometry x="120" y="300" width="120" height="60" as="geometry" />
        </mxCell>
        <mxCell id="ZvuicV4Zh5XwK3fBUE3x-13" style="edgeStyle=orthogonalEdgeStyle;rounded=0;orthogonalLoop=1;jettySize=auto;html=1;exitX=1;exitY=0.5;exitDx=0;exitDy=0;entryX=0;entryY=0.5;entryDx=0;entryDy=0;" edge="1" parent="1" source="ZvuicV4Zh5XwK3fBUE3x-1" target="ZvuicV4Zh5XwK3fBUE3x-3">
          <mxGeometry relative="1" as="geometry">
            <mxPoint x="300" y="330" as="sourcePoint" />
          </mxGeometry>
        </mxCell>
        <mxCell id="ZvuicV4Zh5XwK3fBUE3x-14" style="edgeStyle=orthogonalEdgeStyle;rounded=0;orthogonalLoop=1;jettySize=auto;html=1;exitX=1;exitY=0.5;exitDx=0;exitDy=0;entryX=0;entryY=0.5;entryDx=0;entryDy=0;startArrow=none;" edge="1" parent="1" source="ZvuicV4Zh5XwK3fBUE3x-22" target="ZvuicV4Zh5XwK3fBUE3x-4">
          <mxGeometry relative="1" as="geometry" />
        </mxCell>
        <mxCell id="ZvuicV4Zh5XwK3fBUE3x-3" value="Daily log returns" style="rounded=1;whiteSpace=wrap;html=1;" vertex="1" parent="1">
          <mxGeometry x="320" y="300" width="120" height="60" as="geometry" />
        </mxCell>
        <mxCell id="ZvuicV4Zh5XwK3fBUE3x-15" style="rounded=0;orthogonalLoop=1;jettySize=auto;html=1;exitX=1;exitY=0;exitDx=0;exitDy=0;entryX=0.5;entryY=1;entryDx=0;entryDy=0;" edge="1" parent="1" source="ZvuicV4Zh5XwK3fBUE3x-4" target="ZvuicV4Zh5XwK3fBUE3x-5">
          <mxGeometry relative="1" as="geometry" />
        </mxCell>
        <mxCell id="ZvuicV4Zh5XwK3fBUE3x-25" value="clustermap()" style="edgeLabel;html=1;align=center;verticalAlign=middle;resizable=0;points=[];" vertex="1" connectable="0" parent="ZvuicV4Zh5XwK3fBUE3x-15">
          <mxGeometry x="-0.2833" y="-3" relative="1" as="geometry">
            <mxPoint y="-1" as="offset" />
          </mxGeometry>
        </mxCell>
        <mxCell id="ZvuicV4Zh5XwK3fBUE3x-16" style="edgeStyle=none;rounded=0;orthogonalLoop=1;jettySize=auto;html=1;exitX=1;exitY=1;exitDx=0;exitDy=0;entryX=0.5;entryY=0;entryDx=0;entryDy=0;" edge="1" parent="1" source="ZvuicV4Zh5XwK3fBUE3x-4" target="ZvuicV4Zh5XwK3fBUE3x-6">
          <mxGeometry relative="1" as="geometry" />
        </mxCell>
        <mxCell id="ZvuicV4Zh5XwK3fBUE3x-24" value="Marchenkoâ€“Pastur distribution" style="edgeLabel;html=1;align=center;verticalAlign=middle;resizable=0;points=[];" vertex="1" connectable="0" parent="ZvuicV4Zh5XwK3fBUE3x-16">
          <mxGeometry x="-0.3244" relative="1" as="geometry">
            <mxPoint as="offset" />
          </mxGeometry>
        </mxCell>
        <mxCell id="ZvuicV4Zh5XwK3fBUE3x-4" value="Correlation matrix" style="rounded=1;whiteSpace=wrap;html=1;" vertex="1" parent="1">
          <mxGeometry x="560" y="300" width="120" height="60" as="geometry" />
        </mxCell>
        <mxCell id="ZvuicV4Zh5XwK3fBUE3x-5" value="Clustered Heatmap" style="rounded=1;whiteSpace=wrap;html=1;fillColor=#fff2cc;strokeColor=#d6b656;" vertex="1" parent="1">
          <mxGeometry x="690" y="160" width="120" height="60" as="geometry" />
        </mxCell>
        <mxCell id="ZvuicV4Zh5XwK3fBUE3x-32" style="edgeStyle=none;rounded=0;orthogonalLoop=1;jettySize=auto;html=1;exitX=0;exitY=0.5;exitDx=0;exitDy=0;entryX=1;entryY=0.5;entryDx=0;entryDy=0;" edge="1" parent="1" source="ZvuicV4Zh5XwK3fBUE3x-6" target="ZvuicV4Zh5XwK3fBUE3x-9">
          <mxGeometry relative="1" as="geometry" />
        </mxCell>
        <mxCell id="ZvuicV4Zh5XwK3fBUE3x-39" value="Louvain method for community detection&lt;br&gt;" style="edgeLabel;html=1;align=center;verticalAlign=middle;resizable=0;points=[];" vertex="1" connectable="0" parent="ZvuicV4Zh5XwK3fBUE3x-32">
          <mxGeometry x="-0.2911" relative="1" as="geometry">
            <mxPoint x="-52" as="offset" />
          </mxGeometry>
        </mxCell>
        <mxCell id="ZvuicV4Zh5XwK3fBUE3x-33" style="edgeStyle=none;rounded=0;orthogonalLoop=1;jettySize=auto;html=1;exitX=0;exitY=0.5;exitDx=0;exitDy=0;entryX=1;entryY=0.5;entryDx=0;entryDy=0;" edge="1" parent="1" source="ZvuicV4Zh5XwK3fBUE3x-6" target="ZvuicV4Zh5XwK3fBUE3x-8">
          <mxGeometry relative="1" as="geometry" />
        </mxCell>
        <mxCell id="ZvuicV4Zh5XwK3fBUE3x-6" value="Noise removed correlation matrix" style="rounded=1;whiteSpace=wrap;html=1;" vertex="1" parent="1">
          <mxGeometry x="690" y="400" width="120" height="60" as="geometry" />
        </mxCell>
        <mxCell id="ZvuicV4Zh5XwK3fBUE3x-34" style="edgeStyle=none;rounded=0;orthogonalLoop=1;jettySize=auto;html=1;exitX=0;exitY=0.5;exitDx=0;exitDy=0;entryX=1;entryY=0.5;entryDx=0;entryDy=0;" edge="1" parent="1" source="ZvuicV4Zh5XwK3fBUE3x-8" target="ZvuicV4Zh5XwK3fBUE3x-10">
          <mxGeometry relative="1" as="geometry" />
        </mxCell>
        <mxCell id="ZvuicV4Zh5XwK3fBUE3x-38" value="Kruskal&#39;s algorithm" style="edgeLabel;html=1;align=center;verticalAlign=middle;resizable=0;points=[];" vertex="1" connectable="0" parent="ZvuicV4Zh5XwK3fBUE3x-34">
          <mxGeometry x="-0.1889" relative="1" as="geometry">
            <mxPoint x="-11" as="offset" />
          </mxGeometry>
        </mxCell>
        <mxCell id="ZvuicV4Zh5XwK3fBUE3x-8" value="Distance matrix" style="rounded=1;whiteSpace=wrap;html=1;" vertex="1" parent="1">
          <mxGeometry x="490" y="510" width="120" height="60" as="geometry" />
        </mxCell>
        <mxCell id="ZvuicV4Zh5XwK3fBUE3x-9" value="Network Graph" style="rounded=1;whiteSpace=wrap;html=1;fillColor=#d5e8d4;strokeColor=#82b366;" vertex="1" parent="1">
          <mxGeometry x="210" y="400" width="120" height="60" as="geometry" />
        </mxCell>
        <mxCell id="ZvuicV4Zh5XwK3fBUE3x-35" style="edgeStyle=none;rounded=0;orthogonalLoop=1;jettySize=auto;html=1;exitX=0;exitY=0.5;exitDx=0;exitDy=0;entryX=1;entryY=0.5;entryDx=0;entryDy=0;" edge="1" parent="1" source="ZvuicV4Zh5XwK3fBUE3x-10" target="ZvuicV4Zh5XwK3fBUE3x-11">
          <mxGeometry relative="1" as="geometry" />
        </mxCell>
        <mxCell id="ZvuicV4Zh5XwK3fBUE3x-10" value="Minimum Spanning Tree" style="rounded=1;whiteSpace=wrap;html=1;fillColor=#f8cecc;strokeColor=#b85450;" vertex="1" parent="1">
          <mxGeometry x="210" y="510" width="120" height="60" as="geometry" />
        </mxCell>
        <mxCell id="ZvuicV4Zh5XwK3fBUE3x-11" value="The measures of centrality (closeness, betweenness, degree, eigenvector)" style="rounded=1;whiteSpace=wrap;html=1;" vertex="1" parent="1">
          <mxGeometry x="10" y="485" width="120" height="110" as="geometry" />
        </mxCell>
        <mxCell id="ZvuicV4Zh5XwK3fBUE3x-22" value="Pearson Correlation" style="text;html=1;strokeColor=none;fillColor=none;align=center;verticalAlign=middle;whiteSpace=wrap;rounded=0;" vertex="1" parent="1">
          <mxGeometry x="480" y="315" width="60" height="30" as="geometry" />
        </mxCell>
        <mxCell id="ZvuicV4Zh5XwK3fBUE3x-23" value="" style="edgeStyle=orthogonalEdgeStyle;rounded=0;orthogonalLoop=1;jettySize=auto;html=1;exitX=1;exitY=0.5;exitDx=0;exitDy=0;entryX=0;entryY=0.5;entryDx=0;entryDy=0;endArrow=none;" edge="1" parent="1" source="ZvuicV4Zh5XwK3fBUE3x-3" target="ZvuicV4Zh5XwK3fBUE3x-22">
          <mxGeometry relative="1" as="geometry">
            <mxPoint x="450" y="330" as="sourcePoint" />
            <mxPoint x="560" y="330" as="targetPoint" />
          </mxGeometry>
        </mxCell>
        <mxCell id="ZvuicV4Zh5XwK3fBUE3x-28" style="edgeStyle=none;rounded=0;orthogonalLoop=1;jettySize=auto;html=1;exitX=0.5;exitY=0;exitDx=0;exitDy=0;" edge="1" parent="1" source="ZvuicV4Zh5XwK3fBUE3x-8" target="ZvuicV4Zh5XwK3fBUE3x-8">
          <mxGeometry relative="1" as="geometry" />
        </mxCell>
      </root>
    </mxGraphModel>
  </diagram>
</mxfile>
